<svg xmlns="http://www.w3.org/2000/svg" xmlns:xlink="http://www.w3.org/1999/xlink" contentStyleType="text/css" height="1162px" preserveAspectRatio="none" style="width:397px;height:1162px;background:#FFFFFF;" version="1.1" viewBox="0 0 397 1162" width="397px" zoomAndPan="magnify"><defs/><g><!--class Beach--><g id="elem_Beach"><rect codeLine="1" fill="#F1F1F1" height="210.9688" id="Beach" rx="2.5" ry="2.5" style="stroke:#181818;stroke-width:0.5;" width="270" x="7" y="738.42"/><ellipse cx="115.75" cy="754.42" fill="#ADD1B2" rx="11" ry="11" style="stroke:#181818;stroke-width:1.0;"/><path d="M118.7188,760.0606 Q118.1406,760.3575 117.5,760.4981 Q116.8594,760.6544 116.1563,760.6544 Q113.6563,760.6544 112.3281,759.0138 Q111.0156,757.3575 111.0156,754.2325 Q111.0156,751.1075 112.3281,749.4513 Q113.6563,747.795 116.1563,747.795 Q116.8594,747.795 117.5,747.9513 Q118.1563,748.1075 118.7188,748.4044 L118.7188,751.1231 Q118.0938,750.545 117.5,750.2794 Q116.9063,749.9981 116.2813,749.9981 Q114.9375,749.9981 114.25,751.0763 Q113.5625,752.1388 113.5625,754.2325 Q113.5625,756.3263 114.25,757.4044 Q114.9375,758.4669 116.2813,758.4669 Q116.9063,758.4669 117.5,758.2013 Q118.0938,757.92 118.7188,757.3419 L118.7188,760.0606 Z " fill="#000000"/><text fill="#000000" font-family="sans-serif" font-size="14" lengthAdjust="spacing" textLength="44" x="136.25" y="759.2667">Beach</text><line style="stroke:#181818;stroke-width:0.5;" x1="8" x2="276" y1="770.42" y2="770.42"/><rect fill="none" height="6" style="stroke:#C82930;stroke-width:1.0;" width="6" x="15" y="781.0684"/><text fill="#000000" font-family="sans-serif" font-size="14" lengthAdjust="spacing" textLength="50" x="27" y="787.4151">Long id</text><rect fill="none" height="6" style="stroke:#C82930;stroke-width:1.0;" width="6" x="15" y="797.3653"/><text fill="#000000" font-family="sans-serif" font-size="14" lengthAdjust="spacing" textLength="83" x="27" y="803.712">String name</text><rect fill="none" height="6" style="stroke:#C82930;stroke-width:1.0;" width="6" x="15" y="813.6622"/><text fill="#000000" font-family="sans-serif" font-size="14" lengthAdjust="spacing" textLength="105" x="27" y="820.0089">Double latitude</text><rect fill="none" height="6" style="stroke:#C82930;stroke-width:1.0;" width="6" x="15" y="829.9591"/><text fill="#000000" font-family="sans-serif" font-size="14" lengthAdjust="spacing" textLength="119" x="27" y="836.3057">Double longitude</text><rect fill="none" height="6" style="stroke:#C82930;stroke-width:1.0;" width="6" x="15" y="846.2559"/><text fill="#000000" font-family="sans-serif" font-size="14" lengthAdjust="spacing" textLength="244" x="27" y="852.6026">enums.PollutionLevel pollutionLevel</text><rect fill="none" height="6" style="stroke:#C82930;stroke-width:1.0;" width="6" x="15" y="862.5528"/><text fill="#000000" font-family="sans-serif" font-size="14" lengthAdjust="spacing" textLength="139" x="27" y="868.8995">LocalDate createdAt</text><rect fill="none" height="6" style="stroke:#C82930;stroke-width:1.0;" width="6" x="15" y="878.8497"/><text fill="#000000" font-family="sans-serif" font-size="14" lengthAdjust="spacing" textLength="144" x="27" y="885.1964">LocalDate updatedAt</text><rect fill="none" height="6" style="stroke:#C82930;stroke-width:1.0;" width="6" x="15" y="895.1466"/><text fill="#000000" font-family="sans-serif" font-size="14" lengthAdjust="spacing" textLength="137" x="27" y="901.4932">List&lt;Event&gt; events</text><rect fill="none" height="6" style="stroke:#C82930;stroke-width:1.0;" width="6" x="15" y="911.4434"/><text fill="#000000" font-family="sans-serif" font-size="14" lengthAdjust="spacing" textLength="141" x="27" y="917.7901">List&lt;Photo&gt; photos</text><line style="stroke:#181818;stroke-width:0.5;" x1="8" x2="276" y1="925.0919" y2="925.0919"/><ellipse cx="18" cy="938.7403" fill="#84BE84" rx="3" ry="3" style="stroke:#038048;stroke-width:1.0;"/><text fill="#000000" font-family="sans-serif" font-size="14" lengthAdjust="spacing" textLength="238" x="27" y="942.087">String getAddress(Double,Double)</text></g><!--class Event--><g id="elem_Event"><rect codeLine="14" fill="#F1F1F1" height="210.9688" id="Event" rx="2.5" ry="2.5" style="stroke:#181818;stroke-width:0.5;" width="253" x="15.5" y="467.45"/><ellipse cx="118.25" cy="483.45" fill="#ADD1B2" rx="11" ry="11" style="stroke:#181818;stroke-width:1.0;"/><path d="M121.2188,489.0906 Q120.6406,489.3875 120,489.5281 Q119.3594,489.6844 118.6563,489.6844 Q116.1563,489.6844 114.8281,488.0438 Q113.5156,486.3875 113.5156,483.2625 Q113.5156,480.1375 114.8281,478.4813 Q116.1563,476.825 118.6563,476.825 Q119.3594,476.825 120,476.9813 Q120.6563,477.1375 121.2188,477.4344 L121.2188,480.1531 Q120.5938,479.575 120,479.3094 Q119.4063,479.0281 118.7813,479.0281 Q117.4375,479.0281 116.75,480.1063 Q116.0625,481.1688 116.0625,483.2625 Q116.0625,485.3563 116.75,486.4344 Q117.4375,487.4969 118.7813,487.4969 Q119.4063,487.4969 120,487.2313 Q120.5938,486.95 121.2188,486.3719 L121.2188,489.0906 Z " fill="#000000"/><text fill="#000000" font-family="sans-serif" font-size="14" lengthAdjust="spacing" textLength="39" x="138.75" y="488.2967">Event</text><line style="stroke:#181818;stroke-width:0.5;" x1="16.5" x2="267.5" y1="499.45" y2="499.45"/><rect fill="none" height="6" style="stroke:#C82930;stroke-width:1.0;" width="6" x="23.5" y="510.0984"/><text fill="#000000" font-family="sans-serif" font-size="14" lengthAdjust="spacing" textLength="50" x="35.5" y="516.4451">Long id</text><rect fill="none" height="6" style="stroke:#C82930;stroke-width:1.0;" width="6" x="23.5" y="526.3953"/><text fill="#000000" font-family="sans-serif" font-size="14" lengthAdjust="spacing" textLength="83" x="35.5" y="532.742">String name</text><rect fill="none" height="6" style="stroke:#C82930;stroke-width:1.0;" width="6" x="23.5" y="542.6922"/><text fill="#000000" font-family="sans-serif" font-size="14" lengthAdjust="spacing" textLength="178" x="35.5" y="549.0389">LocalDateTime eventDate</text><rect fill="none" height="6" style="stroke:#C82930;stroke-width:1.0;" width="6" x="23.5" y="558.9891"/><text fill="#000000" font-family="sans-serif" font-size="14" lengthAdjust="spacing" textLength="121" x="35.5" y="565.3357">String description</text><rect fill="none" height="6" style="stroke:#C82930;stroke-width:1.0;" width="6" x="23.5" y="575.2859"/><text fill="#000000" font-family="sans-serif" font-size="14" lengthAdjust="spacing" textLength="182" x="35.5" y="581.6326">enums.EventStatus status</text><rect fill="none" height="6" style="stroke:#C82930;stroke-width:1.0;" width="6" x="23.5" y="591.5828"/><text fill="#000000" font-family="sans-serif" font-size="14" lengthAdjust="spacing" textLength="139" x="35.5" y="597.9295">LocalDate createdAt</text><rect fill="none" height="6" style="stroke:#C82930;stroke-width:1.0;" width="6" x="23.5" y="607.8797"/><text fill="#000000" font-family="sans-serif" font-size="14" lengthAdjust="spacing" textLength="144" x="35.5" y="614.2264">LocalDate updatedAt</text><rect fill="none" height="6" style="stroke:#C82930;stroke-width:1.0;" width="6" x="23.5" y="624.1766"/><text fill="#000000" font-family="sans-serif" font-size="14" lengthAdjust="spacing" textLength="67" x="35.5" y="630.5232">User user</text><rect fill="none" height="6" style="stroke:#C82930;stroke-width:1.0;" width="6" x="23.5" y="640.4734"/><text fill="#000000" font-family="sans-serif" font-size="14" lengthAdjust="spacing" textLength="227" x="35.5" y="646.8201">List&lt;Participation&gt; participations</text><rect fill="none" height="6" style="stroke:#C82930;stroke-width:1.0;" width="6" x="23.5" y="656.7703"/><text fill="#000000" font-family="sans-serif" font-size="14" lengthAdjust="spacing" textLength="91" x="35.5" y="663.117">Beach beach</text><line style="stroke:#181818;stroke-width:0.5;" x1="16.5" x2="267.5" y1="670.4188" y2="670.4188"/></g><!--class Participation--><g id="elem_Participation"><rect codeLine="27" fill="#F1F1F1" height="129.4844" id="Participation" rx="2.5" ry="2.5" style="stroke:#181818;stroke-width:0.5;" width="215" x="62.5" y="277.97"/><ellipse cx="123.75" cy="293.97" fill="#ADD1B2" rx="11" ry="11" style="stroke:#181818;stroke-width:1.0;"/><path d="M126.7188,299.6106 Q126.1406,299.9075 125.5,300.0481 Q124.8594,300.2044 124.1563,300.2044 Q121.6563,300.2044 120.3281,298.5638 Q119.0156,296.9075 119.0156,293.7825 Q119.0156,290.6575 120.3281,289.0013 Q121.6563,287.345 124.1563,287.345 Q124.8594,287.345 125.5,287.5013 Q126.1563,287.6575 126.7188,287.9544 L126.7188,290.6731 Q126.0938,290.095 125.5,289.8294 Q124.9063,289.5481 124.2813,289.5481 Q122.9375,289.5481 122.25,290.6263 Q121.5625,291.6888 121.5625,293.7825 Q121.5625,295.8763 122.25,296.9544 Q122.9375,298.0169 124.2813,298.0169 Q124.9063,298.0169 125.5,297.7513 Q126.0938,297.47 126.7188,296.8919 L126.7188,299.6106 Z " fill="#000000"/><text fill="#000000" font-family="sans-serif" font-size="14" lengthAdjust="spacing" textLength="84" x="144.25" y="298.8167">Participation</text><line style="stroke:#181818;stroke-width:0.5;" x1="63.5" x2="276.5" y1="309.97" y2="309.97"/><rect fill="none" height="6" style="stroke:#C82930;stroke-width:1.0;" width="6" x="70.5" y="320.6184"/><text fill="#000000" font-family="sans-serif" font-size="14" lengthAdjust="spacing" textLength="50" x="82.5" y="326.9651">Long id</text><rect fill="none" height="6" style="stroke:#C82930;stroke-width:1.0;" width="6" x="70.5" y="336.9153"/><text fill="#000000" font-family="sans-serif" font-size="14" lengthAdjust="spacing" textLength="189" x="82.5" y="343.262">LocalDate participationDate</text><rect fill="none" height="6" style="stroke:#C82930;stroke-width:1.0;" width="6" x="70.5" y="353.2122"/><text fill="#000000" font-family="sans-serif" font-size="14" lengthAdjust="spacing" textLength="139" x="82.5" y="359.5589">LocalDate createdAt</text><rect fill="none" height="6" style="stroke:#C82930;stroke-width:1.0;" width="6" x="70.5" y="369.5091"/><text fill="#000000" font-family="sans-serif" font-size="14" lengthAdjust="spacing" textLength="67" x="82.5" y="375.8557">User user</text><rect fill="none" height="6" style="stroke:#C82930;stroke-width:1.0;" width="6" x="70.5" y="385.8059"/><text fill="#000000" font-family="sans-serif" font-size="14" lengthAdjust="spacing" textLength="82" x="82.5" y="392.1526">Event event</text><line style="stroke:#181818;stroke-width:0.5;" x1="63.5" x2="276.5" y1="399.4544" y2="399.4544"/></g><!--class Photo--><g id="elem_Photo"><rect codeLine="35" fill="#F1F1F1" height="145.7813" id="Photo" rx="2.5" ry="2.5" style="stroke:#181818;stroke-width:0.5;" width="299" x="86.5" y="1009.39"/><ellipse cx="211.25" cy="1025.39" fill="#ADD1B2" rx="11" ry="11" style="stroke:#181818;stroke-width:1.0;"/><path d="M214.2188,1031.0306 Q213.6406,1031.3275 213,1031.4681 Q212.3594,1031.6244 211.6563,1031.6244 Q209.1563,1031.6244 207.8281,1029.9838 Q206.5156,1028.3275 206.5156,1025.2025 Q206.5156,1022.0775 207.8281,1020.4213 Q209.1563,1018.765 211.6563,1018.765 Q212.3594,1018.765 213,1018.9213 Q213.6563,1019.0775 214.2188,1019.3744 L214.2188,1022.0931 Q213.5938,1021.515 213,1021.2494 Q212.4063,1020.9681 211.7813,1020.9681 Q210.4375,1020.9681 209.75,1022.0463 Q209.0625,1023.1088 209.0625,1025.2025 Q209.0625,1027.2963 209.75,1028.3744 Q210.4375,1029.4369 211.7813,1029.4369 Q212.4063,1029.4369 213,1029.1713 Q213.5938,1028.89 214.2188,1028.3119 L214.2188,1031.0306 Z " fill="#000000"/><text fill="#000000" font-family="sans-serif" font-size="14" lengthAdjust="spacing" textLength="41" x="231.75" y="1030.2367">Photo</text><line style="stroke:#181818;stroke-width:0.5;" x1="87.5" x2="384.5" y1="1041.39" y2="1041.39"/><rect fill="none" height="6" style="stroke:#C82930;stroke-width:1.0;" width="6" x="94.5" y="1052.0384"/><text fill="#000000" font-family="sans-serif" font-size="14" lengthAdjust="spacing" textLength="50" x="106.5" y="1058.3851">Long id</text><rect fill="none" height="6" style="stroke:#C82930;stroke-width:1.0;" width="6" x="94.5" y="1068.3353"/><text fill="#000000" font-family="sans-serif" font-size="14" lengthAdjust="spacing" textLength="61" x="106.5" y="1074.682">String url</text><rect fill="none" height="6" style="stroke:#C82930;stroke-width:1.0;" width="6" x="94.5" y="1084.6322"/><text fill="#000000" font-family="sans-serif" font-size="14" lengthAdjust="spacing" textLength="273" x="106.5" y="1090.9789">enums.ClassificationPhoto classification</text><rect fill="none" height="6" style="stroke:#C82930;stroke-width:1.0;" width="6" x="94.5" y="1100.9291"/><text fill="#000000" font-family="sans-serif" font-size="14" lengthAdjust="spacing" textLength="170" x="106.5" y="1107.2757">LocalDate uploadedDate</text><rect fill="none" height="6" style="stroke:#C82930;stroke-width:1.0;" width="6" x="94.5" y="1117.2259"/><text fill="#000000" font-family="sans-serif" font-size="14" lengthAdjust="spacing" textLength="67" x="106.5" y="1123.5726">User user</text><rect fill="none" height="6" style="stroke:#C82930;stroke-width:1.0;" width="6" x="94.5" y="1133.5228"/><text fill="#000000" font-family="sans-serif" font-size="14" lengthAdjust="spacing" textLength="91" x="106.5" y="1139.8695">Beach beach</text><line style="stroke:#181818;stroke-width:0.5;" x1="87.5" x2="384.5" y1="1147.1713" y2="1147.1713"/></g><!--class User--><g id="elem_User"><rect codeLine="44" fill="#F1F1F1" height="210.9688" id="User" rx="2.5" ry="2.5" style="stroke:#181818;stroke-width:0.5;" width="253" x="43.5" y="7"/><ellipse cx="149.75" cy="23" fill="#ADD1B2" rx="11" ry="11" style="stroke:#181818;stroke-width:1.0;"/><path d="M152.7188,28.6406 Q152.1406,28.9375 151.5,29.0781 Q150.8594,29.2344 150.1563,29.2344 Q147.6563,29.2344 146.3281,27.5938 Q145.0156,25.9375 145.0156,22.8125 Q145.0156,19.6875 146.3281,18.0313 Q147.6563,16.375 150.1563,16.375 Q150.8594,16.375 151.5,16.5313 Q152.1563,16.6875 152.7188,16.9844 L152.7188,19.7031 Q152.0938,19.125 151.5,18.8594 Q150.9063,18.5781 150.2813,18.5781 Q148.9375,18.5781 148.25,19.6563 Q147.5625,20.7188 147.5625,22.8125 Q147.5625,24.9063 148.25,25.9844 Q148.9375,27.0469 150.2813,27.0469 Q150.9063,27.0469 151.5,26.7813 Q152.0938,26.5 152.7188,25.9219 L152.7188,28.6406 Z " fill="#000000"/><text fill="#000000" font-family="sans-serif" font-size="14" lengthAdjust="spacing" textLength="32" x="170.25" y="27.8467">User</text><line style="stroke:#181818;stroke-width:0.5;" x1="44.5" x2="295.5" y1="39" y2="39"/><rect fill="none" height="6" style="stroke:#C82930;stroke-width:1.0;" width="6" x="51.5" y="49.6484"/><text fill="#000000" font-family="sans-serif" font-size="14" lengthAdjust="spacing" textLength="50" x="63.5" y="55.9951">Long id</text><rect fill="none" height="6" style="stroke:#C82930;stroke-width:1.0;" width="6" x="51.5" y="65.9453"/><text fill="#000000" font-family="sans-serif" font-size="14" lengthAdjust="spacing" textLength="83" x="63.5" y="72.292">String name</text><rect fill="none" height="6" style="stroke:#C82930;stroke-width:1.0;" width="6" x="51.5" y="82.2422"/><text fill="#000000" font-family="sans-serif" font-size="14" lengthAdjust="spacing" textLength="80" x="63.5" y="88.5889">String email</text><rect fill="none" height="6" style="stroke:#C82930;stroke-width:1.0;" width="6" x="51.5" y="98.5391"/><text fill="#000000" font-family="sans-serif" font-size="14" lengthAdjust="spacing" textLength="111" x="63.5" y="104.8857">String password</text><rect fill="none" height="6" style="stroke:#C82930;stroke-width:1.0;" width="6" x="51.5" y="114.8359"/><text fill="#000000" font-family="sans-serif" font-size="14" lengthAdjust="spacing" textLength="187" x="63.5" y="121.1826">enums.UserType userType</text><rect fill="none" height="6" style="stroke:#C82930;stroke-width:1.0;" width="6" x="51.5" y="131.1328"/><text fill="#000000" font-family="sans-serif" font-size="14" lengthAdjust="spacing" textLength="139" x="63.5" y="137.4795">LocalDate createdAt</text><rect fill="none" height="6" style="stroke:#C82930;stroke-width:1.0;" width="6" x="51.5" y="147.4297"/><text fill="#000000" font-family="sans-serif" font-size="14" lengthAdjust="spacing" textLength="144" x="63.5" y="153.7764">LocalDate updatedAt</text><rect fill="none" height="6" style="stroke:#C82930;stroke-width:1.0;" width="6" x="51.5" y="163.7266"/><text fill="#000000" font-family="sans-serif" font-size="14" lengthAdjust="spacing" textLength="137" x="63.5" y="170.0732">List&lt;Event&gt; events</text><rect fill="none" height="6" style="stroke:#C82930;stroke-width:1.0;" width="6" x="51.5" y="180.0234"/><text fill="#000000" font-family="sans-serif" font-size="14" lengthAdjust="spacing" textLength="227" x="63.5" y="186.3701">List&lt;Participation&gt; participations</text><rect fill="none" height="6" style="stroke:#C82930;stroke-width:1.0;" width="6" x="51.5" y="196.3203"/><text fill="#000000" font-family="sans-serif" font-size="14" lengthAdjust="spacing" textLength="141" x="63.5" y="202.667">List&lt;Photo&gt; photos</text><line style="stroke:#181818;stroke-width:0.5;" x1="44.5" x2="295.5" y1="209.9688" y2="209.9688"/></g><!--link User to Photo--><g id="link_User_Photo"><path codeLine="58" d="M264.93,218.31 C277.26,237.04 288.02,257.23 295,277.97 C390.26,560.76 357.3,657.55 295,949.39 C290.71,969.5 283.11,990.27 274.77,1009.19 " fill="none" id="User-Photo" style="stroke:#181818;stroke-width:1.0;"/><text fill="#000000" font-family="sans-serif" font-size="13" lengthAdjust="spacing" textLength="8" x="263.0394" y="237.9954">1</text><text fill="#000000" font-family="sans-serif" font-size="13" lengthAdjust="spacing" textLength="8" x="270.1927" y="998.3303">n</text></g><!--link User to Participation--><g id="link_User_Participation"><path codeLine="59" d="M170,218.24 C170,238.52 170,259.19 170,277.67 " fill="none" id="User-Participation" style="stroke:#181818;stroke-width:1.0;"/><text fill="#000000" font-family="sans-serif" font-size="13" lengthAdjust="spacing" textLength="8" x="161.7313" y="237.9207">1</text><text fill="#000000" font-family="sans-serif" font-size="13" lengthAdjust="spacing" textLength="8" x="161.5625" y="266.8099">n</text></g><!--link User to Event--><g id="link_User_Event"><path codeLine="60" d="M75.07,218.31 C62.74,237.04 51.98,257.23 45,277.97 C26.63,332.5 29.85,351.93 45,407.45 C50.54,427.76 59.3,448.11 69.35,467.24 " fill="none" id="User-Event" style="stroke:#181818;stroke-width:1.0;"/><text fill="#000000" font-family="sans-serif" font-size="13" lengthAdjust="spacing" textLength="8" x="60.4231" y="237.9954">1</text><text fill="#000000" font-family="sans-serif" font-size="13" lengthAdjust="spacing" textLength="8" x="55.9605" y="456.3526">n</text></g><!--link Participation to Event--><g id="link_Participation_Event"><path codeLine="61" d="M162.13,407.89 C159.86,426.35 157.33,446.98 154.85,467.21 " fill="none" id="Participation-Event" style="stroke:#181818;stroke-width:1.0;"/><text fill="#000000" font-family="sans-serif" font-size="13" lengthAdjust="spacing" textLength="8" x="152.9059" y="427.4586">n</text><text fill="#000000" font-family="sans-serif" font-size="13" lengthAdjust="spacing" textLength="8" x="147.4723" y="456.3205">1</text></g><!--link Event to Beach--><g id="link_Event_Beach"><path codeLine="62" d="M142,678.7 C142,698.17 142,718.51 142,737.99 " fill="none" id="Event-Beach" style="stroke:#181818;stroke-width:1.0;"/><text fill="#000000" font-family="sans-serif" font-size="13" lengthAdjust="spacing" textLength="8" x="133.7313" y="698.3814">n</text><text fill="#000000" font-family="sans-serif" font-size="13" lengthAdjust="spacing" textLength="8" x="133.7313" y="727.4413">1</text></g><!--link Beach to Photo--><g id="link_Beach_Photo"><path codeLine="63" d="M183.64,949.61 C191.64,969.74 199.86,990.4 207.34,1009.21 " fill="none" id="Beach-Photo" style="stroke:#181818;stroke-width:1.0;"/><text fill="#000000" font-family="sans-serif" font-size="13" lengthAdjust="spacing" textLength="8" x="178.1689" y="969.2874">1</text><text fill="#000000" font-family="sans-serif" font-size="13" lengthAdjust="spacing" textLength="8" x="196.125" y="998.3523">n</text></g><!--SRC=[hL9DQmCX4BtxAsHFBUqMSY-1jCajXq3I7s1qcWZkAdwabDB_NaUpkswof1HwSPodphptHgwOS_G563_IBrBJjMuFL8gustehuxvb3SHigSDU0LNCInz4YSG77GHjQDpJHYiLlDJj6awWg1cbgGLdQiayK6uX1h7m8pGOCQ3I-UVL2Le_fu31TU3cgBsUKuF1aOUExW7yGWWBpjrbWeyvt9DlGdWIcyhT5DjpsSa6Sb_CXdi27BVIeAfUTYgxzSm7HrqAVzJwvi3I49TU8hDUScaOzebIonIBvwdjSHtKZHvTg1pwZcgTjKrpBLbbvv8VHKESmBITmQhUdbUyBDybJotp8px2BenHcWaGPsubYqdPwSAjcPupQ9XKGshYsmzjHKyJw-m-3QHckFc_3_lBD2T-TLH7ah1gLj6wfbLRPRklqRBQrMdYGyO_0t4yddN7URW5d7mcsUrB0Zy0]--></g></svg>